<svg xmlns="http://www.w3.org/2000/svg" viewBox="0 0 100 100"><defs><style>.a{fill:#fff;}</style></defs><title>emergency_exit_sign</title><circle cx="50" cy="50" r="50"/><path class="a" d="M42,108H59c.33,0,.29,0,.29.28q0,1.88,0,3.75v.25H47.16v8.89H58.61c0,.09,0,.15,0,.22,0,1.29,0,2.58,0,3.87,0,.19-.07.22-.23.22H47.16v10.25H59.69V140H42Z" transform="translate(-27.93 -74)"/><path class="a" d="M61,140l.09-.2,8.23-15.89a.38.38,0,0,0,0-.39l-7.51-15.32-.1-.22h5.4a.31.31,0,0,1,.33.21l4.9,10.2.11.22.1-.19q2.41-5.11,4.82-10.21a.33.33,0,0,1,.36-.23H83l-.12.25-7.54,15.29a.4.4,0,0,0,0,.4l7.95,15.86.1.22H78a.31.31,0,0,1-.33-.21L72.3,128.67l-.12-.23-.11.22L66.59,139.8a.31.31,0,0,1-.33.21H61Z" transform="translate(-27.93 -74)"/><path class="a" d="M113.83,108v4.26h-7.47c0,.12,0,.21,0,.31q0,13.55,0,27.1c0,.37,0,.32-.31.32h-4.78V112.29h-7.6V108Z" transform="translate(-27.93 -74)"/><path class="a" d="M90.91,140H85.84V108h4.85c.18,0,.24,0,.24.23q0,15.78,0,31.56C90.92,139.85,90.91,139.92,90.91,140Z" transform="translate(-27.93 -74)"/></svg>