<svg xmlns="http://www.w3.org/2000/svg" viewBox="0 0 100 100"><defs><style>.a{fill:#fff;}</style></defs><title>fire-extinguisher</title><circle cx="50" cy="50" r="50"/><path class="a" d="M280.45,234.16a.9.9,0,0,0-.61-.21.67.67,0,0,0-.21,0l-13.73,2.94a.88.88,0,0,0-.55.34,1,1,0,0,0-.21.61h-9.25a4.89,4.89,0,1,0-9.37-2,5.09,5.09,0,0,0,.77,2.64,13.64,13.64,0,0,0-3.32,1.61,16.57,16.57,0,0,0-2.6,2.05,19.71,19.71,0,0,0-1.85,2.14q-.86,1.15-1.15,1.64t-.44.8a1.88,1.88,0,0,0-.11,1.5,1.93,1.93,0,0,0,1,1.13,1.85,1.85,0,0,0,.89.21,1.8,1.8,0,0,0,1.75-1.07q.12-.24.43-.75a16.64,16.64,0,0,1,1.24-1.64,15.31,15.31,0,0,1,2-2,11.1,11.1,0,0,1,2.8-1.62,9,9,0,0,1,3.52-.72h1v3.4a9.41,9.41,0,0,0-4.95,3.51,9.57,9.57,0,0,0-1.91,5.84V279a2,2,0,0,0,2,2h15.69a2,2,0,0,0,2-2V254.53a9.5,9.5,0,0,0-2.22-6.22,9.62,9.62,0,0,0-5.62-3.4v-3.13h7.84a1,1,0,0,0,.21.61.88.88,0,0,0,.55.34l13.73,2.94a.67.67,0,0,0,.21,0,1,1,0,0,0,1-1v-9.8A.9.9,0,0,0,280.45,234.16Zm-27.66,3.13a1.92,1.92,0,1,1,.58-1.38A1.88,1.88,0,0,1,252.79,237.28Z" transform="translate(-207.25 -205.44)"/></svg>