<svg xmlns="http://www.w3.org/2000/svg" viewBox="0 0 100 100"><defs><style>.a{fill:#fff;}</style></defs><title>fire-sprinkler</title><circle cx="50" cy="50" r="50"/><path class="a" d="M281.37,233.24H229.55a1.13,1.13,0,0,0-1.13,1.13v5.75a1.13,1.13,0,0,0,1.13,1.13h5.12a21.09,21.09,0,0,0,42.07,0h4.63a1.13,1.13,0,0,0,1.13-1.13v-5.75A1.13,1.13,0,0,0,281.37,233.24Zm-25.67,25a18.55,18.55,0,0,1-18.46-17h36.92A18.55,18.55,0,0,1,255.7,258.25Z" transform="translate(-205.46 -202.94)"/><path class="a" d="M256.94,268.22a.57.57,0,0,0-.49.29c-.3.52-2.93,5.15-2.93,6.83a3.43,3.43,0,1,0,6.85,0c0-1.68-2.63-6.31-2.93-6.83A.57.57,0,0,0,256.94,268.22Z" transform="translate(-205.46 -202.94)"/><path class="a" d="M239,260.16a.57.57,0,0,0-.49.29c-.3.52-2.93,5.15-2.93,6.83a3.43,3.43,0,1,0,6.85,0c0-1.68-2.63-6.31-2.93-6.83A.57.57,0,0,0,239,260.16Z" transform="translate(-205.46 -202.94)"/><path class="a" d="M273.17,260.16a.57.57,0,0,0-.49.29c-.3.52-2.93,5.15-2.93,6.83a3.43,3.43,0,1,0,6.85,0c0-1.68-2.63-6.31-2.93-6.83A.57.57,0,0,0,273.17,260.16Z" transform="translate(-205.46 -202.94)"/></svg>