<svg xmlns="http://www.w3.org/2000/svg" viewBox="0 0 100 100"><defs><style>.a{fill:#fff;}</style></defs><title>emergency_exit</title><circle cx="50" cy="50" r="50"/><path class="a" d="M279.83,297.66c-.61,0-1.2,0-1.92,0V306H271v2.29l.45,0c2.78,0,5.6,0,8.38,0,.41,0,.51-.13.51-.51,0-3.22,0-6.44,0-9.65C280.35,297.77,280.21,297.65,279.83,297.66Z" transform="translate(-223 -239.5)"/><path class="a" d="M266.34,267q-6.91,1.71-13.85,3.38c-.4.1-.42.33-.42.65q0,7.24,0,14.47,0,10.48,0,21a.67.67,0,0,0,.53.77l15.6,5.28.5.14c0-.34,0-.63,0-.93q.07-7.51.14-15,.13-12.75.28-25.49c0-1.65.05-3.3.08-4.94h-.09C268.17,266.55,267.26,266.81,266.34,267Z" transform="translate(-223 -239.5)"/><path class="a" d="M282.9,283.35c0,.47-.15.57-.59.57l-10.07,0h-.67v11.25l.52,0h10.15c.63,0,.61,0,.61.65,0,1.48,0,3,0,4.44v.43c3.8-3.73,7.5-7.44,11.2-11.12-3.7-3.7-7.37-7.41-11.11-11.15C282.89,280.06,282.87,281.7,282.9,283.35Z" transform="translate(-223 -239.5)"/><path class="a" d="M277.44,271.69c.4,0,.52.05.52.48,0,2.75-.05,5.51-.05,8.26v.93c.91,0,1.49,0,2.22,0,.07,0,.22-.28.22-.43V269.8c0-.28,0-.48-.4-.48h-8.28l-.28,0v2.4H272C273.84,271.74,275.63,271.71,277.44,271.69Z" transform="translate(-223 -239.5)"/></svg>