<svg xmlns="http://www.w3.org/2000/svg" viewBox="0 0 100 100"><defs><style>.a{fill:#fff;}</style></defs><title>exit-safety</title><circle cx="50" cy="50" r="50"/><path class="a" d="M81.13,86a2.94,2.94,0,0,1-2.92,2.92H61.51A2.94,2.94,0,0,1,58.6,86V69.85h9.87L65.82,72.5l2.65,2.65L75.56,68l-7.09-7.16-2.65,2.65,2.65,2.65H58.6V50a2.94,2.94,0,0,1,2.92-2.92H78.14A2.94,2.94,0,0,1,81.06,50V86ZM30.57,64.68c-.13.13-.2.33-.33.46h0v.07h0c-2.32,3.64,3,7,3,7,1.33,1,2.72,1.92,4.17,2.92.27.13.2.4.2.6-.33,3-.53,6.1-.8,9.21a2.22,2.22,0,0,0,0,.66,2.09,2.09,0,0,0,2.25,1.86,2.2,2.2,0,0,0,2.45-2.05c.33-3.71.6-7.29.93-10.93a2.22,2.22,0,0,0-.93-2c-1.39-1.06-2.85-2.12-4.31-3.18a2.1,2.1,0,0,0-.4-.33c1.39-1.72,2.72-3.45,4-5.17V64c-.07,1.19-.2,2.32-.27,3.58-.13.86.27,1.33,1.06,1.33,2.58.2,5,.4,7.62.66a1.83,1.83,0,0,0,2.05-1.66A1.74,1.74,0,0,0,49.58,66l-4.7-.4c-.13,0-.33-.07-.53-.07a1.29,1.29,0,0,1,.07-.53c.07-1.39.13-2.85.33-4.24a2.6,2.6,0,0,0-1.06-2.52c-1.52-1.19-3-2.39-4.51-3.51a2.57,2.57,0,0,0-1.52-.6c-2.92-.27-5.77-.46-8.61-.8a1.49,1.49,0,0,0-1.46.66c-1,1.33-2,2.65-2.92,4a1.83,1.83,0,1,0,2.92,2.19c.73-1,1.39-1.92,2.12-2.85a.5.5,0,0,1,.6-.33c1.72.13,3.51.33,5.24.46.13,0,.27.07.4.07a2.88,2.88,0,0,1-.4.46C33.81,60.18,32.22,62.43,30.57,64.68ZM17.91,74.42c2.78,1.39,5.63,2.92,8.42,4.31,1.06.53,1.66.4,2.19-.66.8-1.66,1.79-3.45,2.65-5.17A9.32,9.32,0,0,1,28,68.53a3.77,3.77,0,0,0-.46.86c-.86,1.72-.8,1.59-1.66,3.25a1.58,1.58,0,0,0-.2.46,3.91,3.91,0,0,0-.53-.27c-1.72-.93-3.45-1.79-5.1-2.65a2,2,0,0,0-1.92-.13,2.65,2.65,0,0,0-1.52,2.45A1.82,1.82,0,0,0,17.91,74.42ZM49.58,52.16a4.69,4.69,0,1,0-5.1,4.24A4.65,4.65,0,0,0,49.58,52.16Z" transform="translate(0 -19.33)"/></svg>