<svg xmlns="http://www.w3.org/2000/svg" viewBox="0 0 100 100"><defs><style>.a{fill:#fff;}</style></defs><title>alarm-siren</title><circle cx="50" cy="50" r="50"/><path class="a" d="M174,259a23.65,23.65,0,1,0-9.28-18.79A23.55,23.55,0,0,0,174,259Zm14.36-22.51a3.73,3.73,0,1,1-3.73,3.73A3.73,3.73,0,0,1,188.37,236.47Z" transform="translate(-140.5 -193.44)"/><path class="a" d="M219.57,233.81a5.13,5.13,0,0,0-2.4,9.66,25,25,0,0,1-2.54,8.74,27.21,27.21,0,0,1-6,7.76,32.91,32.91,0,0,1-5.89,4.26v-2.87a25.55,25.55,0,0,1-28.73,0v10.1a1.61,1.61,0,0,0,1.61,1.61h25.51a1.61,1.61,0,0,0,1.61-1.61v-2.13a37.38,37.38,0,0,0,8.8-5.89,31.71,31.71,0,0,0,7.06-9.08,29.46,29.46,0,0,0,3.09-10.74,5.13,5.13,0,0,0-2.12-9.81Z" transform="translate(-140.5 -193.44)"/></svg>