<svg xmlns="http://www.w3.org/2000/svg" viewBox="0 0 49.98 50"><defs><style>.a{fill:#015294;}</style></defs><title>hp-logo</title><path class="a" d="M24.92.08a10.22,10.22,0,0,1,2.22,0A25,25,0,0,1,50,23.15a23.72,23.72,0,0,0,0,3.4,25.28,25.28,0,0,1-2.5,9.4,25,25,0,0,1-20.06,13.9,14.54,14.54,0,0,1-2.15.13,4.15,4.15,0,0,1-1.42-.07q2.63-7.41,5.28-14.82c1.93,0,3.86,0,5.79,0a3.11,3.11,0,0,0,2.85-2c1.63-4.59,3.3-9.17,4.88-13.78a3.58,3.58,0,0,0,.2-2.2,2.86,2.86,0,0,0-2-1.82,8.61,8.61,0,0,0-2.43-.17c-2.48,0-5,0-7.43,0l-.16.33q-6,16.89-12,33.77A25,25,0,0,1,.49,29.71,32.79,32.79,0,0,1,0,25.12a26.44,26.44,0,0,1,1.79-9.38A24.93,24.93,0,0,1,19.42.64c-4,11.21-8,22.45-12,33.66a2.79,2.79,0,0,0,.79.05H12.6c.2,0,.18-.28.26-.41,1.77-5,3.57-10,5.35-15a8.29,8.29,0,0,1,.35-.92c.92,0,1.85,0,2.77,0-1.94,5.43-3.85,10.87-5.82,16.28a1.78,1.78,0,0,0,.64.06c1.55,0,3.09,0,4.64,0,1.75-4.93,3.52-9.86,5.27-14.79a3.55,3.55,0,0,0-.19-3.13,3,3,0,0,0-2.45-1.25c-1.29,0-2.58,0-3.87,0C21.34,10.13,23.16,5.12,24.92.08Z"/><path class="a" d="M35.18,18.07c.15-.17.43-.07.63-.1.72,0,1.43,0,2.15,0-1.67,4.75-3.41,9.48-5,14.24-.93.07-1.86,0-2.79,0C31.82,27.52,33.49,22.79,35.18,18.07Z"/></svg>