<svg xmlns="http://www.w3.org/2000/svg" viewBox="0 0 100 100"><defs><style>.a{fill:#fff;}</style></defs><title>smoke-detector</title><circle cx="50" cy="50" r="50"/><path class="a" d="M80.33,138.77V125.28H129v13.49h-.59c-2,0-4,0-6,0a.59.59,0,0,0-.67.49c-.77,2.38-1.57,4.74-2.35,7.12a.62.62,0,0,1-.69.53q-14,0-27.93,0a.71.71,0,0,1-.8-.59c-.75-2.33-1.55-4.64-2.3-7a.7.7,0,0,0-.82-.57c-2,0-3.95,0-5.92,0ZM125,129.33H84.4v5.35l.25,0q8.33,0,16.66,0a1.1,1.1,0,0,0,.63-.28,4,4,0,0,1,5.41,0,1.25,1.25,0,0,0,.9.32H125Zm-34.65,9.45c.43,1.28.84,2.47,1.22,3.68a.48.48,0,0,0,.56.4c1.21,0,2.43,0,3.64,0a2.72,2.72,0,0,0,.38-.06c-.22-1.23-.44-2.41-.62-3.59-.05-.35-.2-.43-.51-.42-.88,0-1.76,0-2.64,0Zm28.71,0c-1.67,0-3.25,0-4.83,0a.42.42,0,0,0-.3.26c-.23,1.24-.44,2.48-.66,3.76h4.45Zm-15.64,4a11,11,0,0,0,0-1.2.67.67,0,0,0-.29-.47,4.4,4.4,0,0,1-2.08-2.09c-.05-.11-.18-.27-.27-.27-.84,0-1.67,0-2.56,0l.65,4Zm2.65,0h4.49l.7-4c-.88,0-1.69,0-2.49,0a.49.49,0,0,0-.33.26,4.34,4.34,0,0,1-2.08,2.09.56.56,0,0,0-.28.37C106,141.93,106,142.35,106,142.82Zm0-5.38a1.36,1.36,0,1,0-1.36,1.34A1.37,1.37,0,0,0,106,137.44Z" transform="translate(-54.5 -98.44)"/><path class="a" d="M103.7,153.36a5.27,5.27,0,0,1,.54,6.87,6.9,6.9,0,0,1-.51.6,8,8,0,0,0-.22,11.22l.11.14-1.94,1.9c-.49-.67-1.08-1.34-1.53-2.1a10.79,10.79,0,0,1,1.31-12.76c1.39-1.52,1.47-2.34.43-4Z" transform="translate(-54.5 -98.44)"/><path class="a" d="M105.69,151.48l1.89-1.88c.31.37.67.74,1,1.16a10.84,10.84,0,0,1-.67,13.65c-1.39,1.53-1.47,2.33-.43,4l-1.83,1.84a5.21,5.21,0,0,1-.13-7.3,8,8,0,0,0,2.46-6.65,7.77,7.77,0,0,0-1.91-4.44Z" transform="translate(-54.5 -98.44)"/></svg>